<svg width="32" height="32" version="1.1" viewBox="0 0 32 32" xmlns="http://www.w3.org/2000/svg">
 <path d="m8.9287 7.9288c-0.25553 1e-7 -0.51106 0.097211-0.70686 0.29301-0.39161 0.39177-0.39161 1.0224 0 1.4142l6.3639 6.3639-6.3639 6.3639c-0.39161 0.39176-0.39161 1.0224-7e-7 1.4142 0.39161 0.39176 1.0225 0.39176 1.4142-1e-6l6.364-6.3639 6.3639 6.3639c0.3916 0.39176 1.0224 0.39177 1.4142 1e-6 0.3916-0.39177 0.39161-1.0224 0-1.4142l-6.3639-6.3639 6.3639-6.3639c0.39161-0.39177 0.39161-1.0224 0-1.4142-0.3916-0.39176-1.0225-0.39177-1.4142 2e-7l-6.3639 6.3639-6.364-6.3639c-0.19582-0.19582-0.45133-0.29301-0.70686-0.29301z" stroke-width="2.0002"/>
</svg>
