<?xml version="1.0" encoding="UTF-8" standalone="no"?>
<svg
   width="400"
   height="200"
   version="1.1"
   viewBox="0 0 400 200"
   id="svg102"
   sodipodi:docname="assets.svg"
   inkscape:version="1.2.1 (9c6d41e410, 2022-07-14)"
   xmlns:inkscape="http://www.inkscape.org/namespaces/inkscape"
   xmlns:sodipodi="http://sodipodi.sourceforge.net/DTD/sodipodi-0.dtd"
   xmlns:xlink="http://www.w3.org/1999/xlink"
   xmlns="http://www.w3.org/2000/svg"
   xmlns:svg="http://www.w3.org/2000/svg">
  <sodipodi:namedview
     id="namedview104"
     pagecolor="#ffffff"
     bordercolor="#666666"
     borderopacity="1.0"
     inkscape:showpageshadow="2"
     inkscape:pageopacity="0.0"
     inkscape:pagecheckerboard="0"
     inkscape:deskcolor="#d1d1d1"
     showgrid="false"
     showguides="true"
     inkscape:zoom="16"
     inkscape:cx="246.96875"
     inkscape:cy="27.4375"
     inkscape:window-width="1368"
     inkscape:window-height="700"
     inkscape:window-x="0"
     inkscape:window-y="32"
     inkscape:window-maximized="1"
     inkscape:current-layer="path1465">
    <inkscape:grid
       type="xygrid"
       id="grid1087" />
  </sodipodi:namedview>
  <defs
     id="defs40">
    <g
       id="base-selectionmode-checkbox">
      <rect
         width="40"
         height="40"
         fill="none"
         id="rect2" />
      <rect
         x="2"
         y="2"
         width="36"
         height="36"
         rx="4"
         id="rect4" />
    </g>
    <g
       id="base-selectionmode-checkmark">
      <path
         transform="matrix(1.5 0 0 1.5 2 2)"
         d="M9 16.17L4.83 12l-1.42 1.41L9 19 21 7l-1.41-1.41z"
         id="path7" />
    </g>
    <linearGradient
       id="color-on-primary-dark"
       gradientTransform="scale(1.1452981,0.87313514)"
       x1="6.2123566"
       y1="11.893921"
       x2="29.250027"
       y2="11.893921"
       gradientUnits="userSpaceOnUse">
      <stop
         stop-color="#FFFFFF"
         offset="1"
         id="stop10" />
    </linearGradient>
    <linearGradient
       id="color-on-primary-light"
       gradientTransform="scale(1.1452981,0.87313514)"
       x1="6.2123566"
       y1="11.893921"
       x2="29.250027"
       y2="11.893921"
       gradientUnits="userSpaceOnUse">
      <stop
         stop-color="#000000"
         stop-opacity=".87"
         offset="1"
         id="stop13" />
    </linearGradient>
    <linearGradient
       id="color-primary-dark"
       x1="0"
       y1="0"
       x2="40"
       y2="0"
       gradientUnits="userSpaceOnUse">
      <stop
         stop-color="#009688"
         offset="1"
         id="stop16" />
    </linearGradient>
    <linearGradient
       id="color-primary-light"
       x1="0"
       y1="0"
       x2="40"
       y2="0"
       gradientUnits="userSpaceOnUse">
      <stop
         stop-color="#4DB6AC"
         offset="1"
         id="stop19" />
    </linearGradient>
    <linearGradient
       id="color-surface"
       x1="0"
       y1="0"
       x2="40"
       y2="0"
       gradientUnits="userSpaceOnUse">
      <stop
         stop-color="#FFFFFF"
         offset="1"
         id="stop22" />
    </linearGradient>
    <linearGradient
       id="color-surface-dark">
      <stop
         stop-color="#3C3C3C"
         offset="1"
         id="stop25" />
    </linearGradient>
    <linearGradient
       id="color-background">
      <stop
         stop-color="#F2F2F2"
         offset="1"
         id="stop28" />
    </linearGradient>
    <linearGradient
       id="color-background-dark">
      <stop
         stop-color="#212121"
         offset="1"
         id="stop31" />
    </linearGradient>
    <linearGradient
       id="color-base"
       gradientTransform="matrix(1.5569334,0,0,1.8799593,-1.5300724,-1.3662805)"
       x1="4.4114838"
       y1="1.5613714"
       x2="21.960966"
       y2="1.5613714"
       gradientUnits="userSpaceOnUse">
      <stop
         stop-color="#FFFFFF"
         offset="1"
         id="stop34" />
    </linearGradient>
    <filter
       inkscape:collect="always"
       style="color-interpolation-filters:sRGB"
       id="filter1058"
       x="-0.16222235"
       y="-0.13438939"
       width="1.3244447"
       height="1.2687788">
      <feGaussianBlur
         inkscape:collect="always"
         stdDeviation="1.6222235"
         id="feGaussianBlur1060" />
    </filter>
    <linearGradient
       inkscape:collect="always"
       xlink:href="#color-background"
       id="linearGradient1243"
       gradientTransform="scale(0.91004063,1.098852)"
       x1="7.7160772"
       y1="1.8870363"
       x2="34.0403"
       y2="1.8870363"
       gradientUnits="userSpaceOnUse" />
    <linearGradient
       inkscape:collect="always"
       xlink:href="#color-background"
       id="linearGradient1245"
       gradientTransform="scale(0.91004063,1.098852)"
       x1="7.7160772"
       y1="1.8870363"
       x2="34.0403"
       y2="1.8870363"
       gradientUnits="userSpaceOnUse" />
    <linearGradient
       inkscape:collect="always"
       xlink:href="#color-on-primary-light"
       id="linearGradient1247"
       gradientUnits="userSpaceOnUse"
       gradientTransform="scale(1.1452981,0.87313514)"
       x1="6.2123566"
       y1="11.893921"
       x2="29.250027"
       y2="11.893921" />
    <linearGradient
       inkscape:collect="always"
       xlink:href="#color-surface"
       id="linearGradient1249"
       gradientUnits="userSpaceOnUse"
       x1="0"
       y1="0"
       x2="40"
       y2="0" />
    <linearGradient
       inkscape:collect="always"
       xlink:href="#color-primary-dark"
       id="linearGradient1251"
       gradientUnits="userSpaceOnUse"
       x1="0"
       y1="0"
       x2="40"
       y2="0" />
    <linearGradient
       inkscape:collect="always"
       xlink:href="#color-primary-light"
       id="linearGradient1369"
       gradientUnits="userSpaceOnUse"
       x1="0"
       y1="0"
       x2="40"
       y2="0" />
    <linearGradient
       inkscape:collect="always"
       xlink:href="#color-surface-dark"
       id="linearGradient1371"
       gradientTransform="scale(0.91004063,1.098852)"
       x1="7.7160772"
       y1="1.8870363"
       x2="34.0403"
       y2="1.8870363"
       gradientUnits="userSpaceOnUse" />
    <linearGradient
       inkscape:collect="always"
       xlink:href="#color-background-dark"
       id="linearGradient1373"
       gradientTransform="scale(0.91004063,1.098852)"
       x1="7.7160772"
       y1="1.8870363"
       x2="34.0403"
       y2="1.8870363"
       gradientUnits="userSpaceOnUse" />
    <linearGradient
       inkscape:collect="always"
       xlink:href="#color-background-dark"
       id="linearGradient1375"
       gradientTransform="scale(0.91004063,1.098852)"
       x1="7.7160772"
       y1="1.8870363"
       x2="34.0403"
       y2="1.8870363"
       gradientUnits="userSpaceOnUse" />
    <linearGradient
       inkscape:collect="always"
       xlink:href="#color-on-primary-dark"
       id="linearGradient1377"
       gradientUnits="userSpaceOnUse"
       gradientTransform="scale(1.1452981,0.87313514)"
       x1="6.2123566"
       y1="11.893921"
       x2="29.250027"
       y2="11.893921" />
    <linearGradient
       inkscape:collect="always"
       xlink:href="#color-surface-dark"
       id="linearGradient1379"
       gradientTransform="scale(0.91004063,1.098852)"
       x1="7.7160772"
       y1="1.8870363"
       x2="34.0403"
       y2="1.8870363"
       gradientUnits="userSpaceOnUse" />
  </defs>
  <g
     inkscape:groupmode="layer"
     id="layer1"
     sodipodi:insensitive="true"
     inkscape:label="background">
    <rect
       width="200"
       height="200"
       fill="url(#color-background)"
       id="rect42"
       x="0"
       y="0" />
    <rect
       x="200"
       width="200"
       height="200"
       fill="url(#color-background-dark)"
       id="rect52"
       y="0" />
  </g>
  <g
     inkscape:groupmode="layer"
     id="layer2"
     inkscape:label="assets">
    <g
       id="selectionmode-checkbox-unchecked"
       transform="translate(20,90)">
      <use
         width="100%"
         height="100%"
         fill="url(#color-surface)"
         xlink:href="#base-selectionmode-checkbox"
         id="use44" />
    </g>
    <g
       id="selectionmode-checkbox-checked"
       transform="translate(68,90)">
      <use
         width="100%"
         height="100%"
         fill="url(#color-primary-dark)"
         xlink:href="#base-selectionmode-checkbox"
         id="use47" />
      <use
         width="100%"
         height="100%"
         fill="url(#color-on-primary-dark)"
         xlink:href="#base-selectionmode-checkmark"
         id="use49" />
    </g>
    <g
       id="selectionmode-checkbox-unchecked-dark"
       transform="translate(220,90)">
      <use
         width="100%"
         height="100%"
         fill="url(#color-surface-dark)"
         xlink:href="#base-selectionmode-checkbox"
         id="use54" />
    </g>
    <g
       id="selectionmode-checkbox-checked-dark"
       transform="translate(268,90)">
      <use
         width="100%"
         height="100%"
         fill="url(#color-primary-light)"
         xlink:href="#base-selectionmode-checkbox"
         id="use57" />
      <use
         width="100%"
         height="100%"
         fill="url(#color-on-primary-light)"
         xlink:href="#base-selectionmode-checkmark"
         id="use59" />
    </g>
    <g
       id="scale-horz-marks-before-slider"
       transform="translate(5,5.0000001)">
      <path
         d="m 20.106662,3.1361009 8.485283,8.4852811 a 12,12 0 1 1 -16.970562,0 z"
         id="path1157"
         style="opacity:0.15;mix-blend-mode:normal;stroke-width:1.45455;filter:url(#filter1058)"
         transform="matrix(0.979399,0,0,0.979399,-0.69244591,0.74163526)" />
      <path
         d="m 19,6.3162143 6.351168,6.3511677 a 8.9819072,8.9819072 0 1 1 -12.702336,0 z"
         fill="url(#color-primary-dark)"
         stroke="url(#color-base)"
         stroke-linecap="round"
         stroke-width="6"
         id="path64"
         style="fill:url(#linearGradient1251);stroke:url(#color-base)" />
      <rect
         width="38"
         height="38"
         fill="none"
         id="rect62"
         x="0"
         y="0" />
    </g>
    <use
       id="scale-horz-marks-after-slider"
       transform="matrix(1,0,0,-1,36,44)"
       width="100%"
       height="100%"
       xlink:href="#scale-horz-marks-before-slider"
       x="0"
       y="0" />
    <use
       id="scale-vert-marks-before-slider"
       transform="rotate(-90,62.5,-18.5)"
       width="100%"
       height="100%"
       xlink:href="#scale-horz-marks-before-slider"
       x="0"
       y="0" />
    <use
       id="scale-vert-marks-after-slider"
       transform="rotate(90,91.5,87.5)"
       width="100%"
       height="100%"
       xlink:href="#scale-horz-marks-before-slider"
       x="0"
       y="0" />
    <use
       id="scale-horz-marks-after-slider-disabled"
       transform="matrix(1,0,0,-1,41,134)"
       width="100%"
       height="100%"
       xlink:href="#scale-horz-marks-before-slider-disabled"
       x="0"
       y="0" />
    <use
       id="scale-vert-marks-before-slider-disabled"
       transform="rotate(-90,65,24)"
       width="100%"
       height="100%"
       xlink:href="#scale-horz-marks-before-slider-disabled"
       x="0"
       y="0" />
    <use
       id="scale-vert-marks-after-slider-disabled"
       transform="rotate(90,94,130)"
       width="100%"
       height="100%"
       xlink:href="#scale-horz-marks-before-slider-disabled"
       x="0"
       y="0" />
    <use
       id="scale-horz-marks-after-slider-dark"
       transform="rotate(180,262.5,25)"
       width="100%"
       height="100%"
       xlink:href="#scale-horz-marks-before-slider-dark"
       x="0"
       y="0" />
    <use
       id="scale-horz-marks-after-slider-disabled-dark"
       transform="rotate(180,260,70)"
       width="100%"
       height="100%"
       xlink:href="#scale-horz-marks-before-slider-disabled-dark"
       x="0"
       y="0" />
    <use
       id="scale-vert-marks-before-slider-dark"
       transform="rotate(-90,285,-20)"
       width="100%"
       height="100%"
       xlink:href="#scale-horz-marks-before-slider-dark"
       x="0"
       y="0" />
    <use
       id="scale-vert-marks-before-slider-disabled-dark"
       transform="rotate(-90,282.5,22.5)"
       width="100%"
       height="100%"
       xlink:href="#scale-horz-marks-before-slider-disabled-dark"
       x="0"
       y="0" />
    <use
       id="scale-vert-marks-after-slider-dark"
       transform="rotate(90,307.5,92.5)"
       width="100%"
       height="100%"
       xlink:href="#scale-horz-marks-before-slider-dark"
       x="0"
       y="0" />
    <use
       id="scale-vert-marks-after-slider-disabled-dark"
       transform="rotate(90,310,135)"
       width="100%"
       height="100%"
       xlink:href="#scale-horz-marks-before-slider-disabled-dark"
       x="0"
       y="0" />
    <g
       id="scale-horz-marks-before-slider-disabled"
       transform="translate(5,50)">
      <path
         d="m 20.106662,3.1361009 8.485283,8.4852811 a 12,12 0 1 1 -16.970562,0 z"
         id="path1227"
         style="opacity:0.15;mix-blend-mode:normal;stroke-width:1.45455;filter:url(#filter1058)"
         transform="matrix(0.979399,0,0,0.979399,-0.69244591,0.74163526)" />
      <path
         d="m 19,6.3162143 6.351168,6.3511677 a 8.9819072,8.9819072 0 1 1 -12.702336,0 z"
         fill="url(#color-background)"
         stroke="url(#color-background)"
         stroke-linecap="round"
         stroke-width="6"
         id="path1239"
         style="fill:url(#linearGradient1243);stroke:url(#linearGradient1245)" />
      <path
         d="m 19,6.3162143 6.351168,6.3511677 a 8.9819072,8.9819072 0 1 1 -12.702336,0 z"
         fill="url(#color-on-primary-light)"
         stroke="url(#color-surface)"
         stroke-linecap="round"
         stroke-width="6"
         id="path1229"
         style="opacity:0.35;fill:url(#linearGradient1247);stroke:url(#linearGradient1249)" />
      <rect
         width="38"
         height="38"
         fill="none"
         id="rect1231"
         x="0"
         y="0" />
    </g>
    <g
       id="scale-horz-marks-before-slider-dark"
       transform="translate(221,6.0000001)">
      <path
         d="m 20.106662,3.1361009 8.485283,8.4852811 a 12,12 0 1 1 -16.970562,0 z"
         id="path1335"
         style="opacity:0.15;mix-blend-mode:normal;stroke-width:1.45455;filter:url(#filter1058)"
         transform="matrix(0.979399,0,0,0.979399,-0.69244591,0.74163526)" />
      <path
         d="m 19,6.3162143 6.351168,6.3511677 a 8.9819072,8.9819072 0 1 1 -12.702336,0 z"
         fill="url(#color-primary-light)"
         stroke="url(#color-surface-dark)"
         stroke-linecap="round"
         stroke-width="6"
         id="path1337"
         style="fill:url(#linearGradient1369);stroke:url(#linearGradient1371)" />
      <rect
         width="38"
         height="38"
         fill="none"
         id="rect1339"
         x="0"
         y="0" />
      <g
         id="path1465">
        <path
           id="path1567"
           d="M 7.0332031,18.523437 C 6.963657,20.27907 7.2744301,22.02179 7.9296875,23.603516 9.6427481,27.73867 13.790206,31 19,31 c 5.209794,0 9.357252,-3.26133 11.070312,-7.396484 0.655258,-1.581726 0.966031,-3.324446 0.896485,-5.080079 -0.06048,1.412944 -0.366044,2.799648 -0.896485,4.080079 C 28.357252,26.73867 24.209794,30 19,30 13.790206,30 9.6427481,26.73867 7.9296875,22.603516 7.3992467,21.323085 7.093686,19.936381 7.0332031,18.523437 Z"
           style="opacity:0.1;fill:#ffffff"
           sodipodi:nodetypes="cssscsssc" />
      </g>
    </g>
    <g
       id="scale-horz-marks-before-slider-disabled-dark"
       transform="translate(221,51)">
      <path
         d="m 20.106662,3.1361009 8.485283,8.4852811 a 12,12 0 1 1 -16.970562,0 z"
         id="path1343"
         style="opacity:0.15;mix-blend-mode:normal;stroke-width:1.45455;filter:url(#filter1058)"
         transform="matrix(0.979399,0,0,0.979399,-0.69244591,0.74163526)" />
      <path
         d="m 19,6.3162143 6.351168,6.3511677 a 8.9819072,8.9819072 0 1 1 -12.702336,0 z"
         fill="url(#color-background-dark)"
         stroke="url(#color-background-dark)"
         stroke-linecap="round"
         stroke-width="6"
         id="path1345"
         style="fill:url(#linearGradient1373);stroke:url(#linearGradient1375)" />
      <path
         d="m 19,6.3162143 6.351168,6.3511677 a 8.9819072,8.9819072 0 1 1 -12.702336,0 z"
         fill="url(#color-on-primary-dark)"
         stroke="url(#color-surface-dark)"
         stroke-linecap="round"
         stroke-width="6"
         id="path1347"
         style="opacity:0.35;fill:url(#linearGradient1377);stroke:url(#linearGradient1379)" />
      <rect
         width="38"
         height="38"
         fill="none"
         id="rect1349"
         x="0"
         y="0" />
    </g>
  </g>
</svg>
